# xmcd CD database file
#
# Track frame offsets:
#	150
#	26534
#	45508
#	65538
#	96772
#	123501
#	139693
#	159044
#	174204
#	195798
#	213542
#	240905
#	268047
#
# Disc length: 4059 seconds
#
# Revision: 0
# Processed by: cddbd v1.5.1PL2 Copyright (c) Steve Scherf et al.
# Submitted via: CDex 1.70beta2
#
DISCID=9f0fd90d
DTITLE=Christoph Haas and Banda Maracatu - Heart Beat
DYEAR=2004
DGENRE=New Age
TTITLE0=Can You Hear My Heart Beat
TTITLE1=Wichi Chai Chai
TTITLE2=Kimbara
TTITLE3=Ewe Thina
TTITLE4=Theledi
TTITLE5=Dambala La EH
TTITLE6=Arolo
TTITLE7=Due Due
TTITLE8=Guate
TTITLE9=Heyaho
TTITLE10=Sto Mi E Milo
TTITLE11=Earth Is My Mother
TTITLE12=La Ila
EXTD=YEAR: 2004
EXTT0=
EXTT1=
EXTT2=
EXTT3=
EXTT4=
EXTT5=
EXTT6=
EXTT7=
EXTT8=
EXTT9=
EXTT10=
EXTT11=
EXTT12=
PLAYORDER=
